# xmcd
#
# Track frame offsets: 
#        150
#        27762
#        47957
#        65542
#        88595
#        111462
#        131062
#        154152
#        172417
#        188462
#        208522
#        229490
#        248395
#
# Disc length: 3668 seconds
#
# Revision: 4
# Processed by: cddbd v1.5.2PL0 Copyright (c) Steve Scherf et al.
# Submitted via: ExactAudioCopyFreeDBPlugin 1.0
#
DISCID=b60e520d
DTITLE=Celine Dion - Celine Dion
DYEAR=1992
DGENRE=Pop
TTITLE0=Introduction, Love Can Move Mountains
TTITLE1=Show Some Emotion
TTITLE2=If You Asked Me To
TTITLE3=If You Could See Me Now
TTITLE4=Halfway To Heaven
TTITLE5=Did You Give Enough Love
TTITLE6=If I Were You
TTITLE7=Beauty And The Beast (From The Original Motion Picture Soundtr
TTITLE7=ack) (Performed By Celine Dion And Peabo Bryson)
TTITLE8=I Love You, Goodbye
TTITLE9=Little Bit Of Love
TTITLE10=Water From The Moon
TTITLE11=With This Tear
TTITLE12=Nothing Broken But My Heart
EXTD=
EXTT0=
EXTT1=
EXTT2=
EXTT3=
EXTT4=
EXTT5=
EXTT6=
EXTT7=
EXTT8=
EXTT9=
EXTT10=
EXTT11=
EXTT12=
PLAYORDER=
